{
  "accessors": [
    {
      "bufferView": 2,
      "componentType": 5126,
      "count": 73,
      "max": [
        1.2105728387832642,
        10.286327362060547,
        1.4977823495864868
      ],
      "min": [
        1.0379619598388672,
        9.406558990478516,
        0.886652946472168
      ],
      "type": "VEC3"
    },
    {
      "bufferView": 2,
      "byteOffset": 876,
      "componentType": 5126,
      "count": 73,
      "max": [
        0.9997683763504028,
        1.0,
        0.9974688291549683
      ],
      "min": [
        -1.0,
        -0.8995623588562012,
        -0.9974687695503235
      ],
      "type": "VEC3"
    },
    {
      "bufferView": 3,
      "componentType": 5126,
      "count": 73,
      "max": [
        1.0,
        7.929207640700042e-06,
        1.0098941856995225e-05,
        1.0
      ],
      "min": [
        -0.3979209065437317,
        -1.0,
        -1.0,
        1.0
      ],
      "type": "VEC4"
    },
    {
      "bufferView": 1,
      "componentType": 5126,
      "count": 73,
      "max": [
        0.9801393151283264,
        0.9040557146072388
      ],
      "min": [
        0.5764635801315308,
        0.3216235935688019
      ],
      "type": "VEC2"
    },
    {
      "bufferView": 0,
      "componentType": 5125,
      "count": 108,
      "type": "SCALAR"
    },
    {
      "bufferView": 2,
      "byteOffset": 1752,
      "componentType": 5126,
      "count": 152,
      "max": [
        9.4387845993042,
        -2.8571717739105225,
        1.2375409603118896
      ],
      "min": [
        8.755898475646973,
        -3.5829687118530273,
        -0.4391365051269531
      ],
      "type": "VEC3"
    },
    {
      "bufferView": 2,
      "byteOffset": 3576,
      "componentType": 5126,
      "count": 152,
      "max": [
        0.9999334216117859,
        1.0,
        0.999864935874939
      ],
      "min": [
        -0.9999904036521912,
        -0.9999992251396179,
        -0.9945387840270996
      ],
      "type": "VEC3"
    },
    {
      "bufferView": 3,
      "byteOffset": 1168,
      "componentType": 5126,
      "count": 152,
      "max": [
        0.37019962072372437,
        0.5868200063705444,
        0.9993095993995667,
        1.0
      ],
      "min": [
        -0.993833065032959,
        -1.0,
        -0.9993053674697876,
        1.0
      ],
      "type": "VEC4"
    },
    {
      "bufferView": 1,
      "byteOffset": 584,
      "componentType": 5126,
      "count": 152,
      "max": [
        0.9444689750671387,
        0.8593649864196777
      ],
      "min": [
        0.6276959776878357,
        0.375316321849823
      ],
      "type": "VEC2"
    },
    {
      "bufferView": 0,
      "byteOffset": 432,
      "componentType": 5125,
      "count": 228,
      "type": "SCALAR"
    },
    {
      "bufferView": 2,
      "byteOffset": 5400,
      "componentType": 5126,
      "count": 156,
      "max": [
        4.688990116119385,
        1.1481297016143799,
        -1.153268575668335
      ],
      "min": [
        4.4417243003845215,
        0.22836589813232422,
        -2.7854208946228027
      ],
      "type": "VEC3"
    },
    {
      "bufferView": 2,
      "byteOffset": 7272,
      "componentType": 5126,
      "count": 156,
      "max": [
        1.0,
        0.9389867782592773,
        0.9994977712631226
      ],
      "min": [
        -1.0,
        -0.9066681861877441,
        -0.7769286632537842
      ],
      "type": "VEC3"
    },
    {
      "bufferView": 3,
      "byteOffset": 3600,
      "componentType": 5126,
      "count": 156,
      "max": [
        0.1622203141450882,
        0.9485666155815125,
        0.9981122612953186,
        1.0
      ],
      "min": [
        -0.17308229207992554,
        -0.9994977712631226,
        -0.9991872906684875,
        1.0
      ],
      "type": "VEC4"
    },
    {
      "bufferView": 1,
      "byteOffset": 1800,
      "componentType": 5126,
      "count": 156,
      "max": [
        0.9551805257797241,
        0.9365293979644775
      ],
      "min": [
        0.7295637130737305,
        0.5736392140388489
      ],
      "type": "VEC2"
    },
    {
      "bufferView": 0,
      "byteOffset": 1344,
      "componentType": 5125,
      "count": 336,
      "type": "SCALAR"
    },
    {
      "bufferView": 2,
      "byteOffset": 9144,
      "componentType": 5126,
      "count": 1398,
      "max": [
        6.729681968688965,
        -0.8394344449043274,
        2.736692190170288
      ],
      "min": [
        4.659567356109619,
        -4.872200965881348,
        0.6665773391723633
      ],
      "type": "VEC3"
    },
    {
      "bufferView": 2,
      "byteOffset": 25920,
      "componentType": 5126,
      "count": 1398,
      "max": [
        1.0,
        1.0,
        0.9999999403953552
      ],
      "min": [
        -1.0,
        -1.0,
        -1.0
      ],
      "type": "VEC3"
    },
    {
      "bufferView": 3,
      "byteOffset": 6096,
      "componentType": 5126,
      "count": 1398,
      "max": [
        1.0,
        0.7968097925186157,
        1.0,
        -1.0
      ],
      "min": [
        -1.0,
        -1.0,
        -1.0,
        -1.0
      ],
      "type": "VEC4"
    },
    {
      "bufferView": 1,
      "byteOffset": 3048,
      "componentType": 5126,
      "count": 1398,
      "max": [
        0.9978358745574951,
        0.9955055117607117
      ],
      "min": [
        0.0020000000949949026,
        0.0020000000949949026
      ],
      "type": "VEC2"
    },
    {
      "bufferView": 0,
      "byteOffset": 2688,
      "componentType": 5125,
      "count": 2988,
      "type": "SCALAR"
    },
    {
      "bufferView": 2,
      "byteOffset": 42696,
      "componentType": 5126,
      "count": 297,
      "max": [
        4.222468852996826,
        1.2096307277679443,
        4.588275909423828
      ],
      "min": [
        3.543668270111084,
        -1.308213472366333,
        4.313530921936035
      ],
      "type": "VEC3"
    },
    {
      "bufferView": 2,
      "byteOffset": 46260,
      "componentType": 5126,
      "count": 297,
      "max": [
        1.0,
        1.0,
        1.0
      ],
      "min": [
        -1.0,
        -1.0,
        -1.0
      ],
      "type": "VEC3"
    },
    {
      "bufferView": 3,
      "byteOffset": 28464,
      "componentType": 5126,
      "count": 297,
      "max": [
        1.0,
        1.0,
        1.0,
        1.0
      ],
      "min": [
        -1.0,
        -1.0,
        -0.7250674366950989,
        1.0
      ],
      "type": "VEC4"
    },
    {
      "bufferView": 1,
      "byteOffset": 14232,
      "componentType": 5126,
      "count": 297,
      "max": [
        0.9942662119865417,
        0.997999906539917
      ],
      "min": [
        0.25297191739082336,
        0.1041240468621254
      ],
      "type": "VEC2"
    },
    {
      "bufferView": 0,
      "byteOffset": 14640,
      "componentType": 5125,
      "count": 486,
      "type": "SCALAR"
    },
    {
      "bufferView": 2,
      "byteOffset": 49824,
      "componentType": 5126,
      "count": 375,
      "max": [
        0.595018208026886,
        8.177966117858887,
        2.637770414352417
      ],
      "min": [
        0.06229901313781738,
        7.06518030166626,
        1.7334277629852295
      ],
      "type": "VEC3"
    },
    {
      "bufferView": 2,
      "byteOffset": 54324,
      "componentType": 5126,
      "count": 375,
      "max": [
        1.0,
        0.9989041090011597,
        0.9959295988082886
      ],
      "min": [
        -1.0,
        -1.0,
        -0.9999566674232483
      ],
      "type": "VEC3"
    },
    {
      "bufferView": 3,
      "byteOffset": 33216,
      "componentType": 5126,
      "count": 375,
      "max": [
        1.0,
        1.0,
        0.9966493248939514,
        1.0
      ],
      "min": [
        -1.0,
        -0.988576352596283,
        -0.6661022305488586,
        -1.0
      ],
      "type": "VEC4"
    },
    {
      "bufferView": 1,
      "byteOffset": 16608,
      "componentType": 5126,
      "count": 375,
      "max": [
        0.9848751425743103,
        0.997870683670044
      ],
      "min": [
        0.10792411863803864,
        0.09079871326684952
      ],
      "type": "VEC2"
    },
    {
      "bufferView": 0,
      "byteOffset": 16584,
      "componentType": 5125,
      "count": 828,
      "type": "SCALAR"
    },
    {
      "bufferView": 2,
      "byteOffset": 58824,
      "componentType": 5126,
      "count": 2343,
      "max": [
        0.9527891874313354,
        5.977487564086914,
        3.4144411087036133
      ],
      "min": [
        -0.946586012840271,
        -5.849183082580566,
        -3.33609938621521
      ],
      "type": "VEC3"
    },
    {
      "bufferView": 2,
      "byteOffset": 86940,
      "componentType": 5126,
      "count": 2343,
      "max": [
        0.9999969005584717,
        1.0,
        0.9999992251396179
      ],
      "min": [
        -0.9999873042106628,
        -0.9999998807907104,
        -0.9999998807907104
      ],
      "type": "VEC3"
    },
    {
      "bufferView": 3,
      "byteOffset": 39216,
      "componentType": 5126,
      "count": 2343,
      "max": [
        1.0,
        1.0,
        0.9999929666519165,
        1.0
      ],
      "min": [
        -0.9999995231628418,
        -0.9999997019767761,
        -0.9996640682220459,
        -1.0
      ],
      "type": "VEC4"
    },
    {
      "bufferView": 1,
      "byteOffset": 19608,
      "componentType": 5126,
      "count": 2343,
      "max": [
        0.9967945218086243,
        0.9972019791603088
      ],
      "min": [
        0.0020000000949949026,
        0.0020000000949949026
      ],
      "type": "VEC2"
    },
    {
      "bufferView": 0,
      "byteOffset": 19896,
      "componentType": 5125,
      "count": 4620,
      "type": "SCALAR"
    }
  ],
  "asset": {
    "extras": {
      "author": "Nicolas Gerard (https://sketchfab.com/dhaimadoshi)",
      "license": "CC-BY-4.0 (http://creativecommons.org/licenses/by/4.0/)",
      "source": "https://sketchfab.com/3d-models/revolver-130b638be70948dcb7cc18ce5a78bf97",
      "title": "Revolver"
    },
    "generator": "Sketchfab-12.68.0",
    "version": "2.0"
  },
  "bufferViews": [
    {
      "buffer": 0,
      "byteLength": 38376,
      "name": "floatBufferViews",
      "target": 34963
    },
    {
      "buffer": 0,
      "byteLength": 38352,
      "byteOffset": 38376,
      "byteStride": 8,
      "name": "floatBufferViews",
      "target": 34962
    },
    {
      "buffer": 0,
      "byteLength": 115056,
      "byteOffset": 76728,
      "byteStride": 12,
      "name": "floatBufferViews",
      "target": 34962
    },
    {
      "buffer": 0,
      "byteLength": 76704,
      "byteOffset": 191784,
      "byteStride": 16,
      "name": "floatBufferViews",
      "target": 34962
    }
  ],
  "buffers": [
    {
      "byteLength": 268488,
      "uri": "scene.bin"
    }
  ],
  "images": [
    {
      "uri": "textures/Material_145_baseColor.jpeg"
    },
    {
      "uri": "textures/Material_145_normal.png"
    }
  ],
  "materials": [
    {
      "doubleSided": true,
      "name": "Material_145",
      "normalTexture": {
        "index": 1
      },
      "pbrMetallicRoughness": {
        "baseColorTexture": {
          "index": 0
        },
        "metallicFactor": 0.0,
        "roughnessFactor": 0.6
      }
    }
  ],
  "meshes": [
    {
      "name": "Object_0",
      "primitives": [
        {
          "attributes": {
            "NORMAL": 1,
            "POSITION": 0,
            "TANGENT": 2,
            "TEXCOORD_0": 3
          },
          "indices": 4,
          "material": 0,
          "mode": 4
        }
      ]
    },
    {
      "name": "Object_1",
      "primitives": [
        {
          "attributes": {
            "NORMAL": 6,
            "POSITION": 5,
            "TANGENT": 7,
            "TEXCOORD_0": 8
          },
          "indices": 9,
          "material": 0,
          "mode": 4
        }
      ]
    },
    {
      "name": "Object_2",
      "primitives": [
        {
          "attributes": {
            "NORMAL": 11,
            "POSITION": 10,
            "TANGENT": 12,
            "TEXCOORD_0": 13
          },
          "indices": 14,
          "material": 0,
          "mode": 4
        }
      ]
    },
    {
      "name": "Object_3",
      "primitives": [
        {
          "attributes": {
            "NORMAL": 16,
            "POSITION": 15,
            "TANGENT": 17,
            "TEXCOORD_0": 18
          },
          "indices": 19,
          "material": 0,
          "mode": 4
        }
      ]
    },
    {
      "name": "Object_4",
      "primitives": [
        {
          "attributes": {
            "NORMAL": 21,
            "POSITION": 20,
            "TANGENT": 22,
            "TEXCOORD_0": 23
          },
          "indices": 24,
          "material": 0,
          "mode": 4
        }
      ]
    },
    {
      "name": "Object_5",
      "primitives": [
        {
          "attributes": {
            "NORMAL": 26,
            "POSITION": 25,
            "TANGENT": 27,
            "TEXCOORD_0": 28
          },
          "indices": 29,
          "material": 0,
          "mode": 4
        }
      ]
    },
    {
      "name": "Object_6",
      "primitives": [
        {
          "attributes": {
            "NORMAL": 31,
            "POSITION": 30,
            "TANGENT": 32,
            "TEXCOORD_0": 33
          },
          "indices": 34,
          "material": 0,
          "mode": 4
        }
      ]
    }
  ],
  "nodes": [
    {
      "children": [
        1
      ],
      "matrix": [
        -1.8369701465288538e-16,
        -2.220446049250313e-16,
        1.0,
        0.0,
        1.0,
        -4.078893104450762e-32,
        1.8369701465288538e-16,
        0.0,
        0.0,
        1.0,
        2.220446049250313e-16,
        0.0,
        0.0,
        0.0,
        0.0,
        1.0
      ],
      "name": "Sketchfab_model"
    },
    {
      "children": [
        2,
        5,
        8,
        11,
        14,
        17,
        20
      ],
      "name": "70ff96f7571947e6b8260639165bc600.3ds"
    },
    {
      "children": [
        3
      ],
      "matrix": [
        -0.0010726453037932515,
        -0.9999995231628418,
        0.0,
        0.0,
        0.002270579105243087,
        -2.3841855636419496e-06,
        0.9999973177909851,
        0.0,
        -0.9999967813491821,
        0.0010726152686402202,
        0.002270579105243087,
        0.0,
        0.4037492573261261,
        2.8048315048217773,
        1.541186809539795,
        1.0
      ],
      "name": "LP_Latch"
    },
    {
      "children": [
        4
      ],
      "matrix": [
        -0.0010725693368156385,
        0.0022705324158242193,
        -0.9999969129189069,
        0.0,
        -0.9999993264315362,
        -2.435305283093006e-06,
        0.0010725668341643477,
        0.0,
        -3.570111913414023e-13,
        0.9999974672751233,
        0.0022705336308753137,
        0.0,
        9.847612003180943,
        -1.1947308790291657,
        1.1107803427942426,
        1.0
      ],
      "name": "3DSMeshMatrix"
    },
    {
      "mesh": 0,
      "name": "Object_4"
    },
    {
      "children": [
        6
      ],
      "matrix": [
        -0.0010726453037932515,
        -0.9999995231628418,
        0.0,
        0.0,
        0.002270579105243087,
        -2.3841855636419496e-06,
        0.9999973177909851,
        0.0,
        -0.9999967813491821,
        0.0010726152686402202,
        0.002270579105243087,
        0.0,
        0.05066323280334473,
        -0.3326241970062256,
        1.1448181867599487,
        1.0
      ],
      "name": "LP_Crane"
    },
    {
      "children": [
        7
      ],
      "matrix": [
        -0.0010725693368156385,
        0.0022705324158242193,
        -0.9999969129189069,
        0.0,
        -0.9999993264315362,
        -2.435305283093006e-06,
        0.0010725668341643477,
        0.0,
        -3.570111913414023e-13,
        0.9999974672751233,
        0.0022705336308753137,
        0.0,
        -3.2103329044624256,
        -0.42012809931340733,
        9.098558963400253,
        1.0
      ],
      "name": "3DSMeshMatrix"
    },
    {
      "mesh": 1,
      "name": "Object_7"
    },
    {
      "children": [
        9
      ],
      "matrix": [
        -0.0010726453037932515,
        -0.9999995231628418,
        0.0,
        0.0,
        0.002270579105243087,
        -2.3841855636419496e-06,
        0.9999973177909851,
        0.0,
        -0.9999967813491821,
        0.0010726152686402202,
        0.002270579105243087,
        0.0,
        0.007353305816650391,
        1.621514081954956,
        0.15349632501602173,
        1.0
      ],
      "name": "LP_Trigger"
    },
    {
      "children": [
        10
      ],
      "matrix": [
        -0.0010725693368156385,
        0.0022705324158242193,
        -0.9999969129189069,
        0.0,
        -0.9999993264315362,
        -2.435305283093006e-06,
        0.0010725668341643477,
        0.0,
        -3.570111913414023e-13,
        0.9999974672751233,
        0.0022705336308753137,
        0.0,
        0.6930822728065837,
        1.5728053845511054,
        4.568980563401901,
        1.0
      ],
      "name": "3DSMeshMatrix"
    },
    {
      "mesh": 2,
      "name": "Object_10"
    },
    {
      "children": [
        12
      ],
      "matrix": [
        -0.0010726453037932515,
        -0.9999995231628418,
        0.0,
        0.0,
        0.002270579105243087,
        -2.3841855636419496e-06,
        0.9999973177909851,
        0.0,
        -0.9999967813491821,
        0.0010726152686402202,
        0.002270579105243087,
        0.0,
        0.006571769714355469,
        -0.1504802703857422,
        1.795901894569397,
        1.0
      ],
      "name": "LP_Cylinde"
    },
    {
      "children": [
        13
      ],
      "matrix": [
        -0.0010725693368156385,
        0.0022705324158242193,
        -0.9999969129189069,
        0.0,
        -0.9999993264315362,
        -2.435305283093006e-06,
        0.0010725668341643477,
        0.0,
        -3.570111913414023e-13,
        0.9999974672751233,
        0.0022705336308753137,
        0.0,
        -2.8496954466263387,
        -1.7145642892419086,
        5.692034709165087,
        1.0
      ],
      "name": "3DSMeshMatrix"
    },
    {
      "mesh": 3,
      "name": "Object_13"
    },
    {
      "children": [
        15
      ],
      "matrix": [
        -0.0010726453037932515,
        -0.9999995231628418,
        0.0,
        0.0,
        0.002270579105243087,
        -2.3841855636419496e-06,
        0.9999973177909851,
        0.0,
        -0.9999967813491821,
        0.0010726152686402202,
        0.002270579105243087,
        0.0,
        0.006571769714355469,
        1.2527899742126465,
        3.1897294521331787,
        1.0
      ],
      "name": "LP_Aim"
    },
    {
      "children": [
        16
      ],
      "matrix": [
        -0.0010725693368156385,
        0.0022705324158242193,
        -0.9999969129189069,
        0.0,
        -0.9999993264315362,
        -2.435305283093006e-06,
        0.0010725668341643477,
        0.0,
        -3.570111913414023e-13,
        0.9999974672751233,
        0.0022705336308753137,
        0.0,
        -0.04509925246590352,
        -4.4595235357023615,
        3.8718195551854078,
        1.0
      ],
      "name": "3DSMeshMatrix"
    },
    {
      "mesh": 4,
      "name": "Object_16"
    },
    {
      "children": [
        18
      ],
      "matrix": [
        -0.0010726453037932515,
        -0.9999995231628418,
        0.0,
        0.0,
        0.002270579105243087,
        -2.3841855636419496e-06,
        0.9999973177909851,
        0.0,
        -0.9999967813491821,
        0.0010726152686402202,
        0.002270579105243087,
        0.0,
        0.00553363561630249,
        2.8948607444763184,
        1.813204050064087,
        1.0
      ],
      "name": "LP_Hammer"
    },
    {
      "children": [
        19
      ],
      "matrix": [
        -0.0010725693368156385,
        0.0022705324158242193,
        -0.9999969129189069,
        0.0,
        -0.9999993264315362,
        -2.435305283093006e-06,
        0.0010725668341643477,
        0.0,
        -3.570111913414023e-13,
        0.9999974672751233,
        0.0022705336308753137,
        0.0,
        7.621881655609712,
        -1.7369610872849928,
        0.31550260187566204,
        1.0
      ],
      "name": "3DSMeshMatrix"
    },
    {
      "mesh": 5,
      "name": "Object_19"
    },
    {
      "children": [
        21
      ],
      "matrix": [
        -0.0010726453037932515,
        -0.9999995231628418,
        0.0,
        0.0,
        0.0022705793380737305,
        -2.384185791015625e-06,
        0.9999973773956299,
        0.0,
        -0.9999968409538269,
        0.001072615385055542,
        0.0022705793380737305,
        0.0,
        -0.31655314564704895,
        2.554842948913574,
        1.8901679515838623,
        1.0
      ],
      "name": "LP_frame"
    },
    {
      "children": [
        22
      ],
      "matrix": [
        -0.0010725693893005514,
        0.002270532377984271,
        -0.9999968533137588,
        0.0,
        -0.9999993264314798,
        -2.435305242507007e-06,
        0.0010725667702336452,
        0.0,
        -2.1548849283328482e-13,
        0.9999974076700338,
        0.0022705335930354644,
        0.0,
        2.5545017028380896,
        -1.8894380856558686,
        -0.32358407903434155,
        1.0
      ],
      "name": "3DSMeshMatrix"
    },
    {
      "mesh": 6,
      "name": "Object_22"
    }
  ],
  "samplers": [
    {
      "magFilter": 9729,
      "minFilter": 9987,
      "wrapS": 10497,
      "wrapT": 10497
    }
  ],
  "scene": 0,
  "scenes": [
    {
      "name": "Sketchfab_Scene",
      "nodes": [
        0
      ]
    }
  ],
  "textures": [
    {
      "sampler": 0,
      "source": 0
    },
    {
      "sampler": 0,
      "source": 1
    }
  ]
}
